<?xml version="1.0" encoding="UTF-8"?>
<svg id="Camada_2" data-name="Camada 2" xmlns="http://www.w3.org/2000/svg" viewBox="0 0 1412.95 1412.95">
  <defs>
    <style>
      .cls-1 {
        fill: #518267;
      }

      .cls-2 {
        fill: #202823;
      }
    </style>
  </defs>
  <g id="Camada_1-2" data-name="Camada 1">
    <circle class="cls-2" cx="706.47" cy="706.47" r="706.47"/>
    <path class="cls-1" d="M1158.78,729.34l28.92-32.55-43.61,3.13-106.75,7.27c-61.72,4.2-108.31,21.75-141.83,37.81,49.91-58.32,110.33-137.96,123.29-269.47l12.43-126.11,2.94-48.91-33.76,35.04-123.29,133.01c-35.78,38.6-63.1,85.53-79,135.7l-18.82,59.38c-1.41-31.05-5.28-62.15-11.47-92.62-.02-.12-.01-.23-.04-.36-2.72-14.67-11.02-43.91-15.42-59.01-.09-.8-.25-1.61-.5-2.4-.46-1.46-1-2.89-1.48-4.35-.51-1.74-.83-2.81-.83-2.81,0,0-.07-.07-.18-.18-21.1-63.96-52.38-123.53-93.26-177.06l-40.98-53.68c-.31-.4-.66-.75-.99-1.12l-24.98-31.99-6.49,45.1-10.68,62.38c-10.61,61.96-11.49,124.93-2.6,187.15,8.44,59,25.47,116.17,50.68,170.11l-44.22-43.87c-37.37-37.07-83.33-65.97-132.95-83.57l-170.92-60.62c-.29-.1-.58-.15-.87-.23l-45.89-16,24.41,40c.41.97.89,1.92,1.49,2.82l3.39,5.16h0s66.13,100.78,66.13,100.78c50.71,77.27,122.84,136.36,208.58,170.87l26.07,10.5c-49.65,1.46-97.89,12.36-143.57,32.45l-74.05,32.58-23.89,10.51c-.68.3-1.32.67-1.95,1.04l-39.68,17.85,54.56,18.53h0l75.63,27.67c61.38,22.46,127.2,25.55,190.43,8.97l31.02-8.14c-31.52,24.99-57.9,48.41-84.62,89.36l-30.58,46.89-44.75,68.51,58.52-29.72c.35-.15.7-.26,1.04-.44l7.68-3.99h0s64.74-33.64,64.74-33.64c37.46-19.47,64.18-40.32,89.13-65.3.7-13.81,1.46-27.41,2.3-40.35-30.11,33.64-58.83,59.51-103.38,82.66l-45.09,23.43,22.11-33.89c28.72-44.03,56.42-65.65,94.76-95.56,4.82-3.77,9.8-7.64,14.93-11.7,6.7-5.28,8.73-14.31,4.92-21.95-3.77-7.55-12.04-11.38-20.21-9.37-.09.02-.18.05-.28.07l-68.81,18.06c-58.12,15.22-118.57,12.39-174.94-8.24l-68.64-25.11,79.55-35c46.34-20.39,95.5-30.63,146.13-30.43l28.55.11c8.67.04,15.9-5.89,17.56-14.4,1.67-8.51-2.79-16.72-10.84-19.97l-64.66-26.02c-80.81-32.53-148.79-88.22-196.58-161.05l-56.34-85.86,148.28,52.59c46.03,16.32,88.69,43.14,123.35,77.53l77.89,77.28c6.19,6.15,15.83,6.93,22.94,1.84,7.1-5.08,9.47-14.46,5.65-22.3l-16.5-33.87c-53.28-109.34-70.58-230.5-50.05-350.38l8.26-48.26,29.71,38.92c35.31,46.25,63.2,97.16,83.15,151.65.31.92.66,1.89,1.05,2.93,2.61,7.25,5.12,14.54,7.44,21.91.32,1.01.78,1.94,1.31,2.81,6.11,19.56,10.64,39.41,13.53,53.63.04.27.03.53.08.81,6.77,32.82,10.7,66.42,11.67,99.88l1.09,37.66c.26,8.72,6.71,15.93,15.36,17.13,8.64,1.21,16.83-3.95,19.47-12.27l33.15-104.61c14.75-46.55,40.1-90.1,73.29-125.91l106.95-115.39-10.07,102.2c-13.38,135.74-81.31,213.94-130.91,271.04-4.75,5.46-9.34,10.75-13.72,15.89-5.62,6.6-5.77,15.94-.33,22.72,5.42,6.76,14.58,8.66,22.25,4.6,2.32-1.23,4.76-2.53,7.3-3.9,33.45-17.93,84.02-45.01,161.5-50.29l86.71-5.9-49.15,54.09c-9.06,9.97-18.79,19.25-29.11,27.85,5.69,5.11,11.85,11.24,18.14,18.49,10.64-8.98,20.76-18.57,30.15-28.91l60.94-67.07h0s1.71-1.89,1.71-1.89c.1-.11.18-.24.28-.36Z"/>
  </g>
</svg>