<?xml version="1.0" encoding="UTF-8"?>
<svg id="Camada_2" data-name="Camada 2" xmlns="http://www.w3.org/2000/svg" viewBox="0 0 1993.1 1158.51">
  <defs>
    <style>
      .cls-1 {
        fill: #518267;
      }

      .cls-2 {
        fill: #74c098;
      }
    </style>
  </defs>
  <g id="Camada_1-2" data-name="Camada 1">
    <g>
      <g>
        <path class="cls-1" d="M620.06,617.72c1.2-.1,2.08-.65,2.65-1.64.57-.99.86-2.26.86-3.83v-40.37c0-1.56-.29-2.84-.86-3.83-.57-.99-1.46-1.53-2.65-1.64v-.39h16.79c4.11,0,7.72.74,10.81,2.22,3.1,1.48,5.7,3.45,7.81,5.9,2.11,2.45,3.69,5.23,4.76,8.36,1.07,3.13,1.63,6.31,1.68,9.57.05,3.25-.4,6.44-1.37,9.56-.96,3.13-2.42,5.91-4.37,8.36-1.95,2.45-4.42,4.41-7.42,5.9-3,1.48-6.5,2.22-10.5,2.22h-18.19v-.39ZM638.25,616.55c3.13,0,5.83-.7,8.12-2.11,2.29-1.4,4.19-3.25,5.7-5.54,1.51-2.29,2.63-4.91,3.36-7.85.73-2.94,1.05-5.93.98-8.98-.08-3.05-.55-6.04-1.41-8.98-.86-2.94-2.1-5.56-3.71-7.85-1.61-2.29-3.62-4.14-6.01-5.54-2.39-1.41-5.18-2.11-8.36-2.11h-7.89v48.96h9.21Z"/>
        <path class="cls-1" d="M692.84,612.25c0,1.56.29,2.84.86,3.83s1.46,1.54,2.65,1.64v.39h-12.49v-.39c1.2-.1,2.08-.65,2.65-1.64.57-.99.86-2.26.86-3.83v-40.37c0-1.56-.29-2.84-.86-3.83-.57-.99-1.46-1.53-2.65-1.64v-.39h18.35c3.96,0,7.35.66,10.19,1.99,2.84,1.33,5.06,3,6.68,5,1.61,2.01,2.59,4.2,2.93,6.6.34,2.39-.01,4.66-1.05,6.79-1.04,2.13-2.8,4-5.27,5.58-2.47,1.59-5.74,2.59-9.8,3.01l9.37,15.69c.47.73.92,1.48,1.37,2.26.44.78.92,1.5,1.44,2.15s1.11,1.21,1.76,1.68c.65.47,1.39.78,2.22.94v.39h-11.32v-.39c1.14-.1,1.59-.52,1.33-1.25-.26-.73-1.12-2.31-2.58-4.76l-9.84-16.56h-6.8v17.1ZM702.21,593.59c3.17,0,5.83-.64,7.97-1.92,2.13-1.27,3.73-2.88,4.8-4.8,1.06-1.93,1.6-4.02,1.6-6.28s-.53-4.36-1.6-6.29c-1.07-1.92-2.67-3.52-4.8-4.8-2.14-1.27-4.79-1.91-7.97-1.91h-8.2c-.78.94-1.17,2.37-1.17,4.29v21.71h9.37Z"/>
        <path class="cls-1" d="M771.78,596.71h-14.99l-5.54,14.99c-.83,2.24-.97,3.78-.39,4.61.57.84,1.46,1.3,2.65,1.41v.39h-9.53v-.39c.62-.05,1.17-.17,1.64-.35.47-.18.92-.51,1.37-.98s.87-1.09,1.29-1.88c.42-.78.86-1.82,1.33-3.13l16.79-45.37,16.48,44.67c.83,2.19,1.65,3.88,2.46,5.08.81,1.2,1.81,1.85,3.01,1.96v.39h-12.57v-.39c1.2-.1,1.94-.65,2.22-1.64s.01-2.6-.82-4.84l-5.39-14.53ZM771.24,595.15l-6.95-18.89-6.95,18.89h13.9Z"/>
      </g>
      <path class="cls-2" d="M519.81,954.47c0,14.05,2.57,25.53,7.72,34.42,5.15,8.9,13.1,13.81,23.88,14.74v3.51h-112.36v-3.51c10.76-.93,18.72-5.84,23.88-14.74,5.15-8.89,7.72-20.36,7.72-34.42v-363.05c0-14.05-2.58-25.51-7.72-34.41-5.16-8.89-13.11-13.8-23.88-14.75v-3.51h112.36v3.51c-10.77.95-18.73,5.86-23.88,14.75-5.16,8.9-7.72,20.36-7.72,34.41v363.05Z"/>
      <path class="cls-2" d="M640.6,755.04v199.43c0,14.05,2.57,25.53,7.72,34.42,5.15,8.9,13.1,13.81,23.88,14.74v3.51h-112.36v-3.51c10.76-.93,18.72-5.84,23.88-14.74,5.15-8.89,7.72-20.36,7.72-34.42v-245.78c0-14.05-2.58-25.51-7.72-34.42-5.16-8.89-13.11-13.8-23.88-14.74v-3.51h80.76v35.11c21.07-17.78,44.24-29.02,69.52-33.71,25.28-4.68,48.92-2.81,70.93,5.62,22,8.42,40.38,23.29,55.12,44.59,14.75,21.31,22.12,49.5,22.12,84.62v162.21c0,14.05,2.57,25.53,7.72,34.42,5.15,8.9,13.1,13.81,23.88,14.74v3.51h-112.36v-3.51c10.76-.93,18.72-5.84,23.88-14.74,5.15-8.89,7.72-20.36,7.72-34.42v-162.21c0-31.83-4.21-56.76-12.64-74.78-8.43-18.02-18.85-30.78-31.25-38.28-12.41-7.48-25.87-10.41-40.38-8.78-14.52,1.65-27.98,6.32-40.38,14.05-12.41,7.72-22.82,17.91-31.25,30.55-8.43,12.64-12.64,25.98-12.64,40.03Z"/>
      <path class="cls-2" d="M1297.19,756.45v199.43c0,14.05,2.57,25.53,7.72,34.42,5.15,8.9,13.1,13.81,23.88,14.74v3.51h-112.36v-3.51c10.76-.93,18.72-5.84,23.88-14.74,5.15-8.89,7.72-20.36,7.72-34.42v-245.78c0-14.05-2.58-25.51-7.72-34.42-5.16-8.89-13.11-13.8-23.88-14.74v-3.51h80.76v35.11c7.02-6.08,15.21-11.35,24.58-15.8,9.36-4.44,18.96-8.18,28.79-11.24,9.83-3.04,19.66-5.26,29.49-6.67,9.83-1.4,18.96-2.11,27.39-2.11,14.98,0,28.55,1.53,40.73,4.57,12.17,3.05,23.28,6.91,33.36,11.58,10.06,4.69,19.07,9.83,27.04,15.45,7.95,5.62,14.98,11,21.07,16.15l-45.65,62.5-2.81-2.11c5.15-10.76,6.78-21.65,4.92-32.65-1.88-10.99-6.21-21.06-12.99-30.2-6.79-9.13-15.92-16.61-27.39-22.47-11.48-5.85-24.23-8.78-38.27-8.78s-28.44,2.22-41.78,6.67c-13.34,4.45-25.17,10.53-35.46,18.25-10.3,7.73-18.38,16.86-24.23,27.39-5.86,10.53-8.78,21.66-8.78,33.36Z"/>
      <path class="cls-2" d="M1618.81,955.88c0,14.05,2.57,25.53,7.72,34.42,5.15,8.9,13.1,13.81,23.88,14.74v3.51h-112.36v-3.51c10.76-.93,18.72-5.84,23.88-14.74,5.15-8.89,7.72-20.36,7.72-34.42v-245.78c0-14.05-2.58-25.51-7.72-34.42-5.16-8.89-13.11-13.8-23.88-14.74v-3.51h80.76v298.44Z"/>
      <path class="cls-1" d="M1587.91,618.11c-10.77,0-18.85-3.27-24.23-9.83-5.39-6.55-8.07-13.92-8.07-22.12s2.69-15.56,8.07-22.12c5.38-6.55,13.45-9.83,24.23-9.83s18.96,3.27,24.58,9.83c5.62,6.56,8.42,13.94,8.42,22.12s-2.81,15.57-8.42,22.12c-5.62,6.56-13.81,9.83-24.58,9.83Z"/>
      <path class="cls-2" d="M1912.34,590.01c0-14.04-2.58-25.51-7.73-34.41-5.16-8.89-13.11-13.8-23.88-14.75v-3.51h80.76v418.53c0,14.05,2.57,25.53,7.73,34.42,5.15,8.9,13.1,13.81,23.88,14.74v3.51h-80.76v-35.81c-3.75,3.75-8.9,7.72-15.45,11.93-6.56,4.22-13.94,8.08-22.12,11.58-8.2,3.51-17.1,6.45-26.68,8.78-9.6,2.35-19.55,3.51-29.84,3.51-35.11,0-64.49-8.66-88.13-25.98-23.65-17.32-41.43-38.97-53.37-64.96-11.94-25.99-17.8-54.18-17.56-84.62.23-30.43,6.2-58.64,17.91-84.63,11.7-25.98,29.37-47.63,53.02-64.95,23.63-17.31,53.02-25.98,88.13-25.98,19.66,0,37.22,2.81,52.67,8.42,15.45,5.62,29.25,13.11,41.43,22.47v-98.32ZM1912.34,724.14c-10.3-16.38-23.3-29.25-38.97-38.63-15.69-9.36-34.06-14.04-55.13-14.04-24.35,0-44.59,7.97-60.74,23.88-16.15,15.92-28.33,35.81-36.52,59.68-8.2,23.88-12.29,49.86-12.29,77.96s3.97,54.07,11.94,77.95c7.96,23.88,20.12,43.77,36.52,59.68,16.38,15.92,36.75,23.88,61.09,23.88,21.07,0,39.43-4.92,55.13-14.75,15.68-9.82,28.67-22.7,38.97-38.62v-216.99Z"/>
      <path class="cls-2" d="M1095.97,657.43v3.51c11.4.95,19.83,5.86,25.29,14.74,4.67,7.62,7.21,17.24,7.89,28.63v28.98c-8.54-24.78-20.65-43.79-36.36-57.06-15.71-13.26-34.82-19.89-57.31-19.89-39.56,0-70.31,14.68-92.22,44.02-21.92,29.35-32.87,71.2-32.87,125.54s10.95,96.19,32.87,125.54c21.91,29.35,52.66,44.02,92.22,44.02,22.49,0,41.6-6.62,57.31-19.89,15.71-13.26,27.83-32.28,36.36-57.06v83.48c0,46.95-7.08,82.38-21.24,106.3-14.16,23.91-36.95,35.87-68.37,35.87-12.03,0-22.89-1.85-32.58-5.54-9.7-3.7-18.72-8.59-27.06-14.68-8.35-6.09-16-13.26-22.98-21.52-6.98-8.26-13.96-16.96-20.95-26.08l-21.53,61.95c13.57,4.78,25.02,8.48,34.33,11.09,9.31,2.61,18.23,4.56,26.77,5.87,8.53,1.31,17.55,2.17,27.05,2.61,9.5.43,21.24.65,35.2.65,27.93,0,51.2-5.54,69.82-16.63,18.62-11.09,33.35-25.34,44.22-42.72,10.85-17.39,18.52-36.85,22.98-58.37,4.45-21.52,6.69-42.94,6.69-64.24v-319.12h-85.55ZM1106.17,939.06c-15.33,26.74-35.01,40.11-59.06,40.11-29.87,0-51.4-13.37-64.58-40.11-13.19-26.74-19.78-64.24-19.78-112.5s6.69-86.52,20.07-113.48c13.38-26.95,35-40.44,64.88-40.44,24.05,0,43.64,13.48,58.76,40.44,15.13,26.96,22.69,64.79,22.69,113.48s-7.66,85.76-22.98,112.5Z"/>
      <path class="cls-1" d="M885.74,466.13l27.44-30.89-41.37,2.97-101.29,6.9c-58.56,3.98-102.76,20.64-134.57,35.87,47.36-55.34,104.68-130.89,116.98-255.67l11.8-119.65,2.79-46.41-32.04,33.24-116.97,126.2c-33.95,36.62-59.87,81.15-74.95,128.76l-17.86,56.34c-1.34-29.46-5.01-58.97-10.88-87.88-.02-.12-.01-.22-.04-.34-2.59-13.92-10.46-41.66-14.63-55.99-.09-.76-.24-1.52-.48-2.28-.44-1.39-.95-2.74-1.4-4.13-.49-1.65-.79-2.66-.79-2.66,0,0-.07-.07-.17-.18-20.02-60.68-49.7-117.2-88.49-168l-38.88-50.93c-.29-.38-.62-.71-.94-1.06L345.31,0l-6.16,42.79-10.14,59.19c-10.07,58.79-10.9,118.53-2.47,177.57,8,55.98,24.17,110.23,48.08,161.4l-41.95-41.62c-35.45-35.18-79.07-62.59-126.14-79.29l-162.17-57.51c-.27-.1-.55-.14-.83-.22L0,247.13l23.16,37.95c.39.92.85,1.82,1.41,2.68l3.21,4.9h0s62.74,95.62,62.74,95.62c48.11,73.31,116.55,129.38,197.9,162.12l24.73,9.96c-47.11,1.38-92.88,11.73-136.22,30.79l-70.25,30.91-22.67,9.97c-.65.29-1.26.63-1.85.99l-37.65,16.94,51.77,17.58h0l71.76,26.26c58.23,21.31,120.69,24.24,180.68,8.51l29.43-7.72c-29.91,23.71-54.94,45.93-80.29,84.79l-29.02,44.49-42.46,65,55.53-28.19c.33-.15.67-.25.99-.42l7.28-3.78h0s61.42-31.92,61.42-31.92c35.54-18.47,60.9-38.26,84.56-61.96.66-13.1,1.39-26.01,2.18-38.29-28.56,31.92-55.82,56.46-98.09,78.43l-42.78,22.23,20.98-32.16c27.25-41.78,53.53-62.29,89.91-90.67,4.57-3.57,9.29-7.25,14.17-11.1,6.36-5.01,8.28-13.58,4.67-20.83-3.58-7.17-11.43-10.79-19.17-8.89-.09.02-.17.04-.27.07l-65.29,17.13c-55.15,14.44-112.5,11.75-165.98-7.82l-65.12-23.83,75.48-33.21c43.97-19.34,90.61-29.06,138.65-28.87l27.09.1c8.23.04,15.09-5.58,16.67-13.66,1.59-8.08-2.64-15.87-10.29-18.95l-61.35-24.69c-76.67-30.86-141.18-83.7-186.52-152.8l-53.46-81.46,140.69,49.9c43.67,15.49,84.15,40.93,117.04,73.56l73.91,73.33c5.87,5.84,15.02,6.57,21.76,1.75,6.74-4.82,8.99-13.72,5.36-21.16l-15.65-32.13c-50.55-103.74-66.97-218.7-47.49-332.44l7.84-45.79,28.19,36.92c33.5,43.88,59.96,92.19,78.9,143.88.29.87.62,1.8.99,2.78,2.48,6.87,4.85,13.79,7.06,20.79.3.96.74,1.84,1.24,2.66,5.8,18.56,10.1,37.39,12.84,50.88.04.26.03.51.08.76,6.42,31.14,10.15,63.02,11.08,94.77l1.04,35.73c.24,8.28,6.37,15.12,14.57,16.26,8.2,1.15,15.97-3.75,18.47-11.64l31.45-99.25c13.99-44.17,38.05-85.49,69.54-119.47l101.47-109.48-9.56,96.97c-12.69,128.79-77.14,202.99-124.21,257.16-4.51,5.18-8.86,10.2-13.02,15.08-5.34,6.27-5.47,15.13-.32,21.56,5.15,6.42,13.83,8.22,21.11,4.37,2.2-1.17,4.51-2.4,6.93-3.7,31.74-17.01,79.72-42.71,153.23-47.72l82.27-5.6-46.63,51.32c-8.59,9.46-17.83,18.27-27.62,26.42,5.4,4.85,11.24,10.67,17.21,17.54,10.09-8.52,19.7-17.62,28.61-27.43l57.82-63.64h0s1.63-1.79,1.63-1.79c.1-.11.17-.23.26-.34Z"/>
    </g>
  </g>
</svg>